<?xml version="1.0" encoding="utf-8"?>
<!-- Generator: Adobe Illustrator 23.0.2, SVG Export Plug-In . SVG Version: 6.00 Build 0)  -->
<svg version="1.1" id="Layer_1" xmlns="http://www.w3.org/2000/svg" xmlns:xlink="http://www.w3.org/1999/xlink" x="0px" y="0px"
	 viewBox="0 0 100 100" style="enable-background:new 0 0 100 100;" xml:space="preserve">
<title>icon-mask</title>
<g>
	<path d="M46.9,35.2c-6,1.3-11.2,6.8-11.5,12.5c9-2.1,17.9-4.1,26.9-6.2C59.7,36.7,52.7,34,46.9,35.2z"/>
	<path d="M50,0C22.4,0,0,22.4,0,50s22.4,50,50,50s50-22.4,50-50S77.6,0,50,0z M73.9,50c-11.6,2.7-23.2,5.4-34.8,8
		c-0.4,0.1-0.9,0.3-1.5,0.4c1.8,2.8,4.2,4.6,7.2,5.6c6.1,2.2,12.8,0.4,16.9-4.7c0.5-0.7,1-0.9,1.9-0.7c3.7,0.9,7.5,1.7,11.4,2.6
		c-0.3,0.6-0.5,1.2-0.7,1.6c-4.7,8.3-11.7,13.1-21.2,14.3C39.7,78.9,25.8,69.9,23,54.8c-2.8-14.9,7.6-29.6,22.5-31.9
		c15.1-2.3,28.7,7.2,31.6,22.2C77.9,49,77.9,49.1,73.9,50z"/>
</g>
</svg>
